<svg xmlns="http://www.w3.org/2000/svg" viewBox="0 0 50.43 41.04"><defs><style>.cls-1{fill:#25252d;fill-rule:evenodd;}</style></defs><title>twitter</title><g id="Layer_2" data-name="Layer 2"><g id="SOCIAL"><g id="Twitter"><g id="icon"><path class="cls-1" d="M44.51,6.49A10.61,10.61,0,0,0,49,.77a21.38,21.38,0,0,1-6.58,2.42A10.15,10.15,0,0,0,35,0,10.34,10.34,0,0,0,24.56,10.34a7.85,7.85,0,0,0,.33,2.31A29,29,0,0,1,3.51,1.87,10.45,10.45,0,0,0,2.08,7a10.54,10.54,0,0,0,4.6,8.69,10.68,10.68,0,0,1-4.6-1.32v.11a10.39,10.39,0,0,0,8.22,10.23,11,11,0,0,1-2.74.33,5.11,5.11,0,0,1-1.86-.22,10.38,10.38,0,0,0,9.65,7.26,20.8,20.8,0,0,1-12.83,4.4A18.52,18.52,0,0,1,0,36.42,29,29,0,0,0,15.9,41c19,0,29.38-15.73,29.38-29.48V10.23a24,24,0,0,0,5.15-5.39A26.18,26.18,0,0,1,44.51,6.49Z"/></g></g></g></g></svg>