<svg xmlns="http://www.w3.org/2000/svg" viewBox="0 0 49.12 48.41"><defs><style>.cls-1{fill:#25252d;fill-rule:evenodd;}</style></defs><title>google_plus</title><g id="Layer_2" data-name="Layer 2"><g id="SOCIAL"><g id="Google_" data-name="Google+"><g id="icon"><path class="cls-1" d="M22.26,26.07c-1.43-1.32-2.74-2.42-2.74-3.52s1-1.87,2.08-3c2-1.65,3.73-4.07,3.73-8.69,0-4-.55-6.71-3.73-8.36a5.91,5.91,0,0,1,2.08-.33c1.75-.33,4.28-.55,4.28-2V0H15.35C15.24,0,2.63.44,2.63,12c0,4.18,1.32,7.15,4.06,8.8a11.33,11.33,0,0,0,6,1.65h.77a8.51,8.51,0,0,0,1.64,5.5H15c-3.51,0-15,.77-15,10.23,0,9.68,10.63,10.23,12.72,10.23a.38.38,0,0,0,.22-.11c.11,0,.22.11.44.11a19.32,19.32,0,0,0,8.22-1.87c4.17-2,6.36-5.61,6.36-10.67C28,31,24.67,28.16,22.26,26.07ZM15,19.25c-2.74,0-5.48-2.75-6.47-6.49a10.45,10.45,0,0,1,.11-5.83,5.21,5.21,0,0,1,3.18-3.41,4.1,4.1,0,0,1,1.1-.11c3.29,0,5.37,1.32,6.69,5.94,1.32,4.4-.55,8.91-3.62,9.79A3,3,0,0,1,15,19.25ZM14.91,43.9c-5,.33-9.1-1.87-9.43-5.72A6.66,6.66,0,0,1,7.78,33,10.3,10.3,0,0,1,14,30.47h.88c4.71,0,7.78,2.64,8,6.38S19.84,43.57,14.91,43.9Zm26-25V10.67H35.74v8.25H27.52v5.17h8.22v8.25h5.15V24.09h8.22V18.92Z"/></g></g></g></g></svg>